# xmcd
#
# Track frame offsets:
#	150
#	20648
#	54757
#	76675
#	94184
#	109569
#	125960
#	136008
#	151155
#	163193
#	175421
#	185679
#	195400
#	208698
#	219763
#	229279
#
# Disc length: 3201 seconds
#
# Revision: 1
# Processed by: cddbd v1.5.1PL0 Copyright (c) Steve Scherf et al.
# Submitted via: audiograbber 1.82.02
#
DISCID=d10c7f10
DTITLE=Various Artist - What's Happening... Stateside Vol. 2
DYEAR=1900
DGENRE=Soul
TTITLE0=McCrary's - Love On A Summer Night
TTITLE1=Donald Byrd - (Fallin' Like) Dominos
TTITLE2=Latimore - Something 'Bout Cha
TTITLE3=Minnie Riperton - Every Time He Comes Around
TTITLE4=Bobby Womack - I Don't Wanna Be Hurt By Your Love Again
TTITLE5=Marlena Shaw - Easy Evil
TTITLE6=All The People - Cramp Your Style
TTITLE7=Lou Rawls - Bring It On Home
TTITLE8=Glen Campbell - Oh What A Woman
TTITLE9=Jimmy McCracklin - You Ain't Nothing But A Devil
TTITLE10=The Players - Get Right
TTITLE11=Billy Preston - It's Got To Happen
TTITLE12=The Soul Sisters - Good Time Tonight
TTITLE13=Irma Thomas - I'm Gonna Cry Till My Tears Run Dry
TTITLE14=Ike and Tina Turner - Wake Up
TTITLE15=Shirley and Lee - Let The Good Time Roll
EXTD=
EXTT0=
EXTT1=
EXTT2=
EXTT3=
EXTT4=
EXTT5=
EXTT6=
EXTT7=
EXTT8=
EXTT9=
EXTT10=
EXTT11=
EXTT12=
EXTT13=
EXTT14=
EXTT15=
PLAYORDER=
